<svg width="30" height="30" viewBox="0 0 30 30" fill="none" xmlns="http://www.w3.org/2000/svg">
<path d="M22.8734 7.13594C22.3859 6.64844 21.5984 6.64844 21.1109 7.13594L14.9984 13.2359L8.88594 7.12344C8.39844 6.63594 7.61094 6.63594 7.12344 7.12344C6.63594 7.61094 6.63594 8.39844 7.12344 8.88594L13.2359 14.9984L7.12344 21.1109C6.63594 21.5984 6.63594 22.3859 7.12344 22.8734C7.61094 23.3609 8.39844 23.3609 8.88594 22.8734L14.9984 16.7609L21.1109 22.8734C21.5984 23.3609 22.3859 23.3609 22.8734 22.8734C23.3609 22.3859 23.3609 21.5984 22.8734 21.1109L16.7609 14.9984L22.8734 8.88594C23.3484 8.41094 23.3484 7.61094 22.8734 7.13594Z" fill="white"/>
</svg>
