<svg width="291" height="28" viewBox="0 0 291 28" fill="none" xmlns="http://www.w3.org/2000/svg">
<g clip-path="url(#clip0_190_6869)">
<path d="M135.193 1.34708H137.869V25.7817H135.193V1.34708ZM148.572 1.34708H151.247L159.348 18.655L167.45 1.34708H170.125V25.7817H167.45V7.16485L160.612 21.8547H158.085L151.247 7.16485V25.7817H148.572V1.34708ZM186.699 1.34708H188.929L198.071 25.7817H195.247L193.24 20.2549H182.314L180.308 25.7817H177.483L186.699 1.34708ZM187.889 5.12863L183.281 18.0005H192.571L187.889 5.12863ZM212.936 12.9826H221.706V16.8369C221.706 19.6731 221.186 21.5639 219.625 23.1637C217.915 24.9818 215.611 25.9999 213.01 25.9999C210.557 25.9999 208.328 25.1272 206.618 23.4546C204.24 21.1275 204.24 18.7277 204.24 13.5644C204.24 8.40112 204.24 6.0013 206.618 3.67418C208.328 2.00157 210.483 1.12891 213.01 1.12891C216.28 1.12891 218.287 2.29246 220.442 4.47412L218.659 6.21946C216.875 4.47413 215.537 3.45602 213.01 3.45602C211.375 3.45602 209.814 4.11051 208.699 5.20134C207.138 6.80123 206.915 8.40112 206.915 13.5644C206.915 18.655 207.064 20.3276 208.699 21.9275C209.814 23.0183 211.375 23.6728 213.01 23.6728C214.868 23.6728 216.578 22.9456 217.692 21.5638C218.733 20.4003 219.03 18.9459 219.03 17.1278V15.3097H212.936V12.9826ZM231.442 1.34708H234.118V25.7817H231.442V1.34708ZM244.895 1.34708H247.422L260.651 20.8366V1.34708H263.327V25.7817H260.8L247.57 6.21946V25.7817H244.895V1.34708ZM281.685 12.9826H290.455V16.8369C290.455 19.6731 289.935 21.5639 288.374 23.1637C286.665 24.9818 284.36 25.9999 281.759 25.9999C279.306 25.9999 277.077 25.1272 275.367 23.4546C272.989 21.1275 272.989 18.7277 272.989 13.5644C272.989 8.40112 272.989 6.0013 275.367 3.67418C277.077 2.00157 279.232 1.12891 281.759 1.12891C285.029 1.12891 287.036 2.29246 289.191 4.47412L287.408 6.21946C285.624 4.47413 284.286 3.45602 281.759 3.45602C280.124 3.45602 278.563 4.11051 277.448 5.20134C275.888 6.80123 275.665 8.40112 275.665 13.5644C275.665 18.655 275.813 20.3276 277.448 21.9275C278.563 23.0183 280.124 23.6728 281.759 23.6728C283.617 23.6728 285.327 22.9456 286.442 21.5638C287.482 20.4003 287.779 18.9459 287.779 17.1278V15.3097H281.685V12.9826Z" fill="white"/>
<path d="M0.663091 5.61239C0.457508 5.15746 0.345396 4.66732 0.333155 4.16994C0.320914 3.67256 0.408784 3.17769 0.591748 2.71359C0.961261 1.77628 1.69568 1.02118 2.63344 0.614393C3.57121 0.20761 4.6355 0.182468 5.59218 0.544496C6.54886 0.906525 7.31958 1.62607 7.73477 2.54484L16.5069 21.9286C16.9221 22.8474 16.9477 23.8901 16.5782 24.8274C16.2087 25.7647 15.4743 26.5198 14.5365 26.9266C13.5988 27.3334 12.5345 27.3585 11.5778 26.9965C10.6211 26.6345 9.8504 25.9149 9.43521 24.9962L0.663091 5.61239Z" fill="#27AAE1" fill-opacity="0.75"/>
<path d="M18.2086 2.54386C18.6238 1.62509 19.3946 0.905548 20.3512 0.54352C21.3079 0.181491 22.3722 0.206634 23.31 0.613417C24.2477 1.0202 24.9822 1.7753 25.3517 2.71261C25.7212 3.64992 25.6955 4.69265 25.2803 5.61142L16.5082 24.9952C16.093 25.914 15.3223 26.6335 14.3656 26.9955C13.4089 27.3576 12.3446 27.3324 11.4069 26.9256C10.4691 26.5189 9.7347 25.7638 9.36519 24.8264C8.99567 23.8891 9.02134 22.8464 9.43653 21.9276L18.2086 2.54386Z" fill="#39B54A" fill-opacity="0.75"/>
<path d="M46.6564 0.852103C47.2219 0.852103 47.7643 1.07221 48.1642 1.46399C48.5641 1.85577 48.7887 2.38715 48.7887 2.94121C48.7887 3.49528 48.5641 4.02665 48.1642 4.41844C47.7643 4.81022 47.2219 5.03033 46.6564 5.03033H34.7533V11.4563H45.6577C46.2233 11.4563 46.7656 11.6764 47.1655 12.0682C47.5654 12.46 47.79 12.9914 47.79 13.5454C47.79 14.0995 47.5654 14.6309 47.1655 15.0227C46.7656 15.4144 46.2233 15.6345 45.6577 15.6345H34.7533V22.0605H47.0883C47.6538 22.0605 48.1961 22.2806 48.596 22.6724C48.9959 23.0642 49.2206 23.5956 49.2206 24.1497C49.2206 24.7037 48.9959 25.2351 48.596 25.6269C48.1961 26.0187 47.6538 26.2388 47.0883 26.2388H32.1892C31.5091 26.2388 30.8569 25.9741 30.376 25.503C29.8952 25.0318 29.625 24.3928 29.625 23.7265V3.36433C29.625 2.69804 29.8952 2.05905 30.376 1.58792C30.8569 1.11678 31.5091 0.852103 32.1892 0.852103H46.6564ZM54.133 3.36433C54.133 2.69804 54.4031 2.05905 54.884 1.58792C55.3649 1.11678 56.0171 0.852103 56.6971 0.852103C57.3772 0.852103 58.0294 1.11678 58.5102 1.58792C58.9911 2.05905 59.2613 2.69804 59.2613 3.36433V22.0605H70.1657C70.7312 22.0605 71.2736 22.2806 71.6735 22.6724C72.0733 23.0642 72.298 23.5956 72.298 24.1497C72.298 24.7037 72.0733 25.2351 71.6735 25.6269C71.2736 26.0187 70.7312 26.2388 70.1657 26.2388H56.6971C56.0171 26.2388 55.3649 25.9741 54.884 25.503C54.4031 25.0318 54.133 24.3928 54.133 23.7265V3.36433ZM86.0095 0.666992C94.1068 0.666992 98.5604 5.6121 98.5604 13.5454C98.5604 21.4788 94.1068 26.4239 86.0095 26.4239C77.9121 26.4239 73.4586 21.4788 73.4586 13.5454C73.4586 5.6121 77.9121 0.666992 86.0095 0.666992ZM86.0095 4.6601C81.1511 4.6601 78.6949 8.78544 78.6949 13.5454C78.6949 18.3054 81.1511 22.4308 86.0095 22.4308C90.8679 22.4308 93.3241 18.3054 93.3241 13.5454C93.3241 8.78544 90.8679 4.6601 86.0095 4.6601ZM101.926 4.83464C101.549 4.25111 101.424 3.54466 101.578 2.87069C101.732 2.19673 102.154 1.61045 102.749 1.24084C103.345 0.871225 104.066 0.748556 104.754 0.899814C105.442 1.05107 106.04 1.46387 106.417 2.04739L110.839 8.48661L115.26 2.04739C115.637 1.46387 116.235 1.05107 116.923 0.899814C117.611 0.748556 118.332 0.871225 118.928 1.24084C119.523 1.61045 119.945 2.19673 120.099 2.87069C120.254 3.54466 120.128 4.25111 119.751 4.83464L114.051 13.1514L120.291 22.2562C120.668 22.8398 120.793 23.5462 120.639 24.2202C120.485 24.8941 120.063 25.4804 119.468 25.85C118.872 26.2196 118.151 26.3423 117.463 26.1911C116.775 26.0398 116.177 25.627 115.8 25.0435L110.839 17.8189L105.878 25.0435C105.5 25.627 104.902 26.0398 104.214 26.1911C103.526 26.3423 102.805 26.2196 102.21 25.85C101.614 25.4804 101.193 24.8941 101.038 24.2202C100.884 23.5462 101.009 22.8398 101.386 22.2562L107.627 13.1514L101.926 4.83464Z" fill="#39B54A"/>
</g>
<defs>
<clipPath id="clip0_190_6869">
<rect width="291" height="28" fill="white"/>
</clipPath>
</defs>
</svg>
